<mxfile host="app.diagrams.net" modified="2024-07-08T05:51:07.040Z" agent="Mozilla/5.0 (Macintosh; Intel Mac OS X 10_15_7) AppleWebKit/537.36 (KHTML, like Gecko) Chrome/125.0.0.0 Safari/537.36" etag="yHFxYbB7aXOqbww2Yczj" version="24.6.3" type="github">
  <diagram name="第 1 页" id="2kxmE6_QkXwdPQsPAMVf">
    <mxGraphModel dx="4898" dy="3348" grid="1" gridSize="10" guides="1" tooltips="1" connect="1" arrows="1" fold="1" page="1" pageScale="1" pageWidth="827" pageHeight="1169" math="0" shadow="0">
      <root>
        <mxCell id="0" />
        <mxCell id="1" parent="0" />
        <mxCell id="kAN6zUIRQIHeMg0-f0UK-23" style="edgeStyle=orthogonalEdgeStyle;rounded=0;orthogonalLoop=1;jettySize=auto;html=1;exitX=0.288;exitY=0.999;exitDx=0;exitDy=0;exitPerimeter=0;" edge="1" parent="1" source="kAN6zUIRQIHeMg0-f0UK-6" target="kAN6zUIRQIHeMg0-f0UK-9">
          <mxGeometry relative="1" as="geometry" />
        </mxCell>
        <mxCell id="kAN6zUIRQIHeMg0-f0UK-24" style="edgeStyle=orthogonalEdgeStyle;rounded=0;orthogonalLoop=1;jettySize=auto;html=1;exitX=0.75;exitY=1;exitDx=0;exitDy=0;entryX=1;entryY=0.25;entryDx=0;entryDy=0;" edge="1" parent="1" source="kAN6zUIRQIHeMg0-f0UK-2" target="kAN6zUIRQIHeMg0-f0UK-16">
          <mxGeometry relative="1" as="geometry" />
        </mxCell>
        <mxCell id="kAN6zUIRQIHeMg0-f0UK-2" value="&lt;span style=&quot;background-color: rgb(213, 232, 212);&quot;&gt;square_activity（活动广场)&lt;/span&gt;" style="shape=table;startSize=30;container=1;collapsible=1;childLayout=tableLayout;fixedRows=1;rowLines=0;fontStyle=1;align=center;resizeLast=1;html=1;labelBackgroundColor=default;fillColor=#d5e8d4;strokeColor=#82b366;" vertex="1" parent="1">
          <mxGeometry x="-2160" y="-960" width="470" height="340" as="geometry" />
        </mxCell>
        <mxCell id="kAN6zUIRQIHeMg0-f0UK-3" value="" style="shape=tableRow;horizontal=0;startSize=0;swimlaneHead=0;swimlaneBody=0;fillColor=none;collapsible=0;dropTarget=0;points=[[0,0.5],[1,0.5]];portConstraint=eastwest;top=0;left=0;right=0;bottom=1;" vertex="1" parent="kAN6zUIRQIHeMg0-f0UK-2">
          <mxGeometry y="30" width="470" height="30" as="geometry" />
        </mxCell>
        <mxCell id="kAN6zUIRQIHeMg0-f0UK-4" value="PK" style="shape=partialRectangle;connectable=0;fillColor=none;top=0;left=0;bottom=0;right=0;fontStyle=1;overflow=hidden;whiteSpace=wrap;html=1;" vertex="1" parent="kAN6zUIRQIHeMg0-f0UK-3">
          <mxGeometry width="30" height="30" as="geometry">
            <mxRectangle width="30" height="30" as="alternateBounds" />
          </mxGeometry>
        </mxCell>
        <mxCell id="kAN6zUIRQIHeMg0-f0UK-5" value="`ID` bigint(20) NOT NULL AUTO_INCREMENT COMMENT &#39;自增ID&#39;" style="shape=partialRectangle;connectable=0;fillColor=none;top=0;left=0;bottom=0;right=0;align=left;spacingLeft=6;fontStyle=5;overflow=hidden;whiteSpace=wrap;html=1;" vertex="1" parent="kAN6zUIRQIHeMg0-f0UK-3">
          <mxGeometry x="30" width="440" height="30" as="geometry">
            <mxRectangle width="440" height="30" as="alternateBounds" />
          </mxGeometry>
        </mxCell>
        <mxCell id="kAN6zUIRQIHeMg0-f0UK-6" value="" style="shape=tableRow;horizontal=0;startSize=0;swimlaneHead=0;swimlaneBody=0;fillColor=none;collapsible=0;dropTarget=0;points=[[0,0.5],[1,0.5]];portConstraint=eastwest;top=0;left=0;right=0;bottom=0;" vertex="1" parent="kAN6zUIRQIHeMg0-f0UK-2">
          <mxGeometry y="60" width="470" height="280" as="geometry" />
        </mxCell>
        <mxCell id="kAN6zUIRQIHeMg0-f0UK-7" value="" style="shape=partialRectangle;connectable=0;fillColor=none;top=0;left=0;bottom=0;right=0;editable=1;overflow=hidden;whiteSpace=wrap;html=1;" vertex="1" parent="kAN6zUIRQIHeMg0-f0UK-6">
          <mxGeometry width="30" height="280" as="geometry">
            <mxRectangle width="30" height="280" as="alternateBounds" />
          </mxGeometry>
        </mxCell>
        <mxCell id="kAN6zUIRQIHeMg0-f0UK-8" value="&lt;div style=&quot;line-height: 130%;&quot;&gt;&lt;div style=&quot;line-height: 130%;&quot;&gt;&lt;div style=&quot;line-height: 130%;&quot;&gt;&lt;div style=&quot;line-height: 130%;&quot;&gt;&lt;div style=&quot;line-height: 130%;&quot;&gt;&lt;div data-docx-has-block-data=&quot;false&quot; data-page-id=&quot;Co8VdgC0moM7NCxHO37cvej0neh&quot;&gt;&lt;div class=&quot;old-record-id-Ze5vdnJgfoNHqzxl2qscwm99n2c&quot; style=&quot;&quot;&gt;&lt;div class=&quot;old-record-id-Ze5vdnJgfoNHqzxl2qscwm99n2c&quot;&gt;&lt;div data-docx-has-block-data=&quot;false&quot; data-page-id=&quot;NvuWdaZeMolkfJxWdABclu5wnZb&quot;&gt;&lt;div class=&quot;old-record-id-QTNEdN7cpoGi0txkAPdcTSP8n4N&quot; style=&quot;white-space:pre;&quot;&gt;CREATE TABLE `square_activity` (&lt;br/&gt;  `id` bigint(11) NOT NULL AUTO_INCREMENT,&lt;br/&gt;  `activity_id` bigint(20) DEFAULT NULL COMMENT &#39;活动id&#39;,&lt;br/&gt;  `activity_code` varchar(64) DEFAULT NULL COMMENT &#39;活动编码&#39;,&lt;br/&gt;  `activity_name` varchar(200) DEFAULT NULL COMMENT &#39;活动名称&#39;,&lt;br/&gt;  `activity_start_time` datetime DEFAULT NULL COMMENT &#39;活动开始时间&#39;,&lt;br/&gt;  `activity_end_time` datetime DEFAULT NULL COMMENT &#39;活动结束时间&#39;,&lt;br/&gt;  `activity_status` datetime DEFAULT NULL COMMENT &#39;活动状态 0.无效 1.有效&#39;,&lt;br/&gt;  `activity_type` tinyint(1) NOT NULL COMMENT &#39;活动类型：0.市场活动 1.满减活动 2.返券活动 4.礼券活动&#39;,&lt;br/&gt;  `activity_create_time` datetime DEFAULT NULL COMMENT &#39;活动创建时间&#39;,&lt;br/&gt;  `create_id` bigint(20) DEFAULT &#39;0&#39; COMMENT &#39;创建人&#39;,&lt;br/&gt;  `create_time` datetime DEFAULT NULL COMMENT &#39;创建时间&#39;,&lt;br/&gt;  `update_id` bigint(20) DEFAULT &#39;0&#39; COMMENT &#39;更新人&#39;,&lt;br/&gt;  `update_time` datetime DEFAULT NULL COMMENT &#39;更新时间&#39;,&lt;br/&gt;  `deleted` tinyint(1) DEFAULT &#39;0&#39; COMMENT &#39;0未删除 1删除&#39;,&lt;br/&gt;  PRIMARY KEY (`id`)&lt;br/&gt;) ENGINE=InnoDB DEFAULT CHARSET=utf8mb4 COMMENT=&#39;活动广场表&#39;;&lt;/div&gt;&lt;/div&gt;&lt;span class=&quot;lark-record-clipboard&quot; data-lark-record-format=&quot;docx/text&quot; data-lark-record-data=&quot;{&amp;quot;rootId&amp;quot;:&amp;quot;NvuWdaZeMolkfJxWdABclu5wnZb&amp;quot;,&amp;quot;text&amp;quot;:{&amp;quot;initialAttributedTexts&amp;quot;:{&amp;quot;text&amp;quot;:{&amp;quot;0&amp;quot;:&amp;quot;CREATE TABLE `square_activity` (\n  `id` bigint(11) NOT NULL AUTO_INCREMENT,\n  `activity_id` bigint(20) DEFAULT NULL COMMENT &#39;活动id&#39;,\n  `activity_code` varchar(64) DEFAULT NULL COMMENT &#39;活动编码&#39;,\n  `activity_name` varchar(200) DEFAULT NULL COMMENT &#39;活动名称&#39;,\n  `activity_start_time` datetime DEFAULT NULL COMMENT &#39;活动开始时间&#39;,\n  `activity_end_time` datetime DEFAULT NULL COMMENT &#39;活动结束时间&#39;,\n  `activity_status` datetime DEFAULT NULL COMMENT &#39;活动状态 0.无效 1.有效&#39;,\n  `activity_type` tinyint(1) NOT NULL COMMENT &#39;活动类型：0.市场活动 1.满减活动 2.返券活动 4.礼券活动&#39;,\n  `activity_create_time` datetime DEFAULT NULL COMMENT &#39;活动创建时间&#39;,\n  `create_id` bigint(20) DEFAULT &#39;0&#39; COMMENT &#39;创建人&#39;,\n  `create_time` datetime DEFAULT NULL COMMENT &#39;创建时间&#39;,\n  `update_id` bigint(20) DEFAULT &#39;0&#39; COMMENT &#39;更新人&#39;,\n  `update_time` datetime DEFAULT NULL COMMENT &#39;更新时间&#39;,\n  `deleted` tinyint(1) DEFAULT &#39;0&#39; COMMENT &#39;0未删除 1删除&#39;,\n  PRIMARY KEY (`id`)\n) ENGINE=InnoDB DEFAULT CHARSET=utf8mb4 COMMENT=&#39;活动广场表&#39;;&amp;quot;},&amp;quot;attribs&amp;quot;:{&amp;quot;0&amp;quot;:&amp;quot;*0|g+og*0+1k&amp;quot;}},&amp;quot;apool&amp;quot;:{&amp;quot;numToAttrib&amp;quot;:{&amp;quot;0&amp;quot;:[&amp;quot;author&amp;quot;,&amp;quot;7220235268358848515&amp;quot;]},&amp;quot;nextNum&amp;quot;:1}},&amp;quot;type&amp;quot;:&amp;quot;text&amp;quot;,&amp;quot;referenceRecordMap&amp;quot;:{},&amp;quot;extra&amp;quot;:{&amp;quot;channel&amp;quot;:&amp;quot;saas&amp;quot;,&amp;quot;pasteRandomId&amp;quot;:&amp;quot;44fd6253-43ac-45ac-8588-8f718b8ea525&amp;quot;,&amp;quot;mention_page_title&amp;quot;:{},&amp;quot;external_mention_url&amp;quot;:{}},&amp;quot;isKeepQuoteContainer&amp;quot;:false,&amp;quot;isFromCode&amp;quot;:true,&amp;quot;selection&amp;quot;:[{&amp;quot;id&amp;quot;:14,&amp;quot;type&amp;quot;:&amp;quot;text&amp;quot;,&amp;quot;selection&amp;quot;:{&amp;quot;start&amp;quot;:0,&amp;quot;end&amp;quot;:936},&amp;quot;recordId&amp;quot;:&amp;quot;QTNEdN7cpoGi0txkAPdcTSP8n4N&amp;quot;}],&amp;quot;payloadMap&amp;quot;:{},&amp;quot;isCut&amp;quot;:false}&quot;&gt;&lt;/span&gt;&lt;/div&gt;&lt;/div&gt;&lt;/div&gt;&lt;/div&gt;&lt;/div&gt;&lt;/div&gt;&lt;/div&gt;&lt;/div&gt;" style="shape=partialRectangle;connectable=0;fillColor=default;top=0;left=0;bottom=0;right=0;align=left;spacingLeft=6;overflow=hidden;whiteSpace=wrap;html=1;" vertex="1" parent="kAN6zUIRQIHeMg0-f0UK-6">
          <mxGeometry x="30" width="440" height="280" as="geometry">
            <mxRectangle width="440" height="280" as="alternateBounds" />
          </mxGeometry>
        </mxCell>
        <mxCell id="kAN6zUIRQIHeMg0-f0UK-9" value="&lt;span style=&quot;background-color: rgb(213, 232, 212);&quot;&gt;square_activity_collect（活动广场收藏)&lt;/span&gt;" style="shape=table;startSize=30;container=1;collapsible=1;childLayout=tableLayout;fixedRows=1;rowLines=0;fontStyle=1;align=center;resizeLast=1;html=1;labelBackgroundColor=default;fillColor=#d5e8d4;strokeColor=#82b366;" vertex="1" parent="1">
          <mxGeometry x="-2910" y="-640" width="480" height="230" as="geometry" />
        </mxCell>
        <mxCell id="kAN6zUIRQIHeMg0-f0UK-10" value="" style="shape=tableRow;horizontal=0;startSize=0;swimlaneHead=0;swimlaneBody=0;fillColor=none;collapsible=0;dropTarget=0;points=[[0,0.5],[1,0.5]];portConstraint=eastwest;top=0;left=0;right=0;bottom=1;" vertex="1" parent="kAN6zUIRQIHeMg0-f0UK-9">
          <mxGeometry y="30" width="480" height="30" as="geometry" />
        </mxCell>
        <mxCell id="kAN6zUIRQIHeMg0-f0UK-11" value="PK" style="shape=partialRectangle;connectable=0;fillColor=none;top=0;left=0;bottom=0;right=0;fontStyle=1;overflow=hidden;whiteSpace=wrap;html=1;" vertex="1" parent="kAN6zUIRQIHeMg0-f0UK-10">
          <mxGeometry width="30" height="30" as="geometry">
            <mxRectangle width="30" height="30" as="alternateBounds" />
          </mxGeometry>
        </mxCell>
        <mxCell id="kAN6zUIRQIHeMg0-f0UK-12" value="`ID` bigint(20) NOT NULL AUTO_INCREMENT COMMENT &#39;自增ID&#39;" style="shape=partialRectangle;connectable=0;fillColor=none;top=0;left=0;bottom=0;right=0;align=left;spacingLeft=6;fontStyle=5;overflow=hidden;whiteSpace=wrap;html=1;" vertex="1" parent="kAN6zUIRQIHeMg0-f0UK-10">
          <mxGeometry x="30" width="450" height="30" as="geometry">
            <mxRectangle width="450" height="30" as="alternateBounds" />
          </mxGeometry>
        </mxCell>
        <mxCell id="kAN6zUIRQIHeMg0-f0UK-13" value="" style="shape=tableRow;horizontal=0;startSize=0;swimlaneHead=0;swimlaneBody=0;fillColor=none;collapsible=0;dropTarget=0;points=[[0,0.5],[1,0.5]];portConstraint=eastwest;top=0;left=0;right=0;bottom=0;" vertex="1" parent="kAN6zUIRQIHeMg0-f0UK-9">
          <mxGeometry y="60" width="480" height="170" as="geometry" />
        </mxCell>
        <mxCell id="kAN6zUIRQIHeMg0-f0UK-14" value="" style="shape=partialRectangle;connectable=0;fillColor=none;top=0;left=0;bottom=0;right=0;editable=1;overflow=hidden;whiteSpace=wrap;html=1;" vertex="1" parent="kAN6zUIRQIHeMg0-f0UK-13">
          <mxGeometry width="30" height="170" as="geometry">
            <mxRectangle width="30" height="170" as="alternateBounds" />
          </mxGeometry>
        </mxCell>
        <mxCell id="kAN6zUIRQIHeMg0-f0UK-15" value="&lt;div style=&quot;line-height: 130%;&quot;&gt;&lt;div style=&quot;line-height: 130%;&quot;&gt;&lt;div style=&quot;line-height: 130%;&quot;&gt;&lt;div style=&quot;line-height: 130%;&quot;&gt;&lt;div style=&quot;line-height: 130%;&quot;&gt;&lt;div data-docx-has-block-data=&quot;false&quot; data-page-id=&quot;Co8VdgC0moM7NCxHO37cvej0neh&quot;&gt;&lt;div class=&quot;old-record-id-Ze5vdnJgfoNHqzxl2qscwm99n2c&quot; style=&quot;&quot;&gt;&lt;div class=&quot;old-record-id-Ze5vdnJgfoNHqzxl2qscwm99n2c&quot;&gt;&lt;div data-docx-has-block-data=&quot;false&quot; data-page-id=&quot;NvuWdaZeMolkfJxWdABclu5wnZb&quot;&gt;&lt;div class=&quot;old-record-id-QTNEdN7cpoGi0txkAPdcTSP8n4N&quot; style=&quot;white-space:pre;&quot;&gt;&lt;div data-docx-has-block-data=&quot;false&quot; data-page-id=&quot;NvuWdaZeMolkfJxWdABclu5wnZb&quot;&gt;&lt;div class=&quot;old-record-id-QTNEdN7cpoGi0txkAPdcTSP8n4N&quot;&gt;CREATE TABLE `square_activity_collect` (&lt;br/&gt;  `id` bigint(11) NOT NULL AUTO_INCREMENT,&lt;br/&gt;  `square_activity_id` bigint(11) NOT NULL COMMENT &#39;广场活动id&#39;,&lt;br/&gt;  `create_id` bigint(20) DEFAULT &#39;0&#39; COMMENT &#39;创建人&#39;,&lt;br/&gt;  `create_time` datetime DEFAULT NULL COMMENT &#39;创建时间&#39;,&lt;br/&gt;  `update_id` bigint(20) DEFAULT &#39;0&#39; COMMENT &#39;更新人&#39;,&lt;br/&gt;  `update_time` datetime DEFAULT NULL COMMENT &#39;更新时间&#39;,&lt;br/&gt;  `deleted` tinyint(1) DEFAULT &#39;0&#39; COMMENT &#39;0未删除 1删除&#39;,&lt;br/&gt;  PRIMARY KEY (`id`)&lt;br/&gt;) ENGINE=InnoDB DEFAULT CHARSET=utf8mb4 COMMENT=&#39;活动广场收藏表&#39;;&lt;/div&gt;&lt;/div&gt;&lt;span class=&quot;lark-record-clipboard&quot; data-lark-record-format=&quot;docx/text&quot; data-lark-record-data=&quot;{&amp;quot;rootId&amp;quot;:&amp;quot;NvuWdaZeMolkfJxWdABclu5wnZb&amp;quot;,&amp;quot;text&amp;quot;:{&amp;quot;initialAttributedTexts&amp;quot;:{&amp;quot;text&amp;quot;:{&amp;quot;0&amp;quot;:&amp;quot;CREATE TABLE `square_activity_collect` (\n  `id` bigint(11) NOT NULL AUTO_INCREMENT,\n  `square_activity_id` bigint(11) NOT NULL COMMENT &#39;广场活动id&#39;,\n  `create_id` bigint(20) DEFAULT &#39;0&#39; COMMENT &#39;创建人&#39;,\n  `create_time` datetime DEFAULT NULL COMMENT &#39;创建时间&#39;,\n  `update_id` bigint(20) DEFAULT &#39;0&#39; COMMENT &#39;更新人&#39;,\n  `update_time` datetime DEFAULT NULL COMMENT &#39;更新时间&#39;,\n  `deleted` tinyint(1) DEFAULT &#39;0&#39; COMMENT &#39;0未删除 1删除&#39;,\n  PRIMARY KEY (`id`)\n) ENGINE=InnoDB DEFAULT CHARSET=utf8mb4 COMMENT=&#39;活动广场收藏表&#39;;&amp;quot;},&amp;quot;attribs&amp;quot;:{&amp;quot;0&amp;quot;:&amp;quot;*0|9+c1*0+1m&amp;quot;}},&amp;quot;apool&amp;quot;:{&amp;quot;numToAttrib&amp;quot;:{&amp;quot;0&amp;quot;:[&amp;quot;author&amp;quot;,&amp;quot;7220235268358848515&amp;quot;]},&amp;quot;nextNum&amp;quot;:1}},&amp;quot;type&amp;quot;:&amp;quot;text&amp;quot;,&amp;quot;referenceRecordMap&amp;quot;:{},&amp;quot;extra&amp;quot;:{&amp;quot;channel&amp;quot;:&amp;quot;saas&amp;quot;,&amp;quot;pasteRandomId&amp;quot;:&amp;quot;5b37b273-c162-4435-8fdf-3f05ffb19653&amp;quot;,&amp;quot;mention_page_title&amp;quot;:{},&amp;quot;external_mention_url&amp;quot;:{}},&amp;quot;isKeepQuoteContainer&amp;quot;:false,&amp;quot;isFromCode&amp;quot;:true,&amp;quot;selection&amp;quot;:[{&amp;quot;id&amp;quot;:14,&amp;quot;type&amp;quot;:&amp;quot;text&amp;quot;,&amp;quot;selection&amp;quot;:{&amp;quot;start&amp;quot;:938,&amp;quot;end&amp;quot;:1429},&amp;quot;recordId&amp;quot;:&amp;quot;QTNEdN7cpoGi0txkAPdcTSP8n4N&amp;quot;}],&amp;quot;payloadMap&amp;quot;:{},&amp;quot;isCut&amp;quot;:false}&quot;&gt;&lt;/span&gt;&lt;/div&gt;&lt;/div&gt;&lt;span class=&quot;lark-record-clipboard&quot; data-lark-record-format=&quot;docx/text&quot; data-lark-record-data=&quot;{&amp;quot;rootId&amp;quot;:&amp;quot;NvuWdaZeMolkfJxWdABclu5wnZb&amp;quot;,&amp;quot;text&amp;quot;:{&amp;quot;initialAttributedTexts&amp;quot;:{&amp;quot;text&amp;quot;:{&amp;quot;0&amp;quot;:&amp;quot;CREATE TABLE `square_activity` (\n  `id` bigint(11) NOT NULL AUTO_INCREMENT,\n  `activity_id` bigint(20) DEFAULT NULL COMMENT &#39;活动id&#39;,\n  `activity_code` varchar(64) DEFAULT NULL COMMENT &#39;活动编码&#39;,\n  `activity_name` varchar(200) DEFAULT NULL COMMENT &#39;活动名称&#39;,\n  `activity_start_time` datetime DEFAULT NULL COMMENT &#39;活动开始时间&#39;,\n  `activity_end_time` datetime DEFAULT NULL COMMENT &#39;活动结束时间&#39;,\n  `activity_status` datetime DEFAULT NULL COMMENT &#39;活动状态 0.无效 1.有效&#39;,\n  `activity_type` tinyint(1) NOT NULL COMMENT &#39;活动类型：0.市场活动 1.满减活动 2.返券活动 4.礼券活动&#39;,\n  `activity_create_time` datetime DEFAULT NULL COMMENT &#39;活动创建时间&#39;,\n  `create_id` bigint(20) DEFAULT &#39;0&#39; COMMENT &#39;创建人&#39;,\n  `create_time` datetime DEFAULT NULL COMMENT &#39;创建时间&#39;,\n  `update_id` bigint(20) DEFAULT &#39;0&#39; COMMENT &#39;更新人&#39;,\n  `update_time` datetime DEFAULT NULL COMMENT &#39;更新时间&#39;,\n  `deleted` tinyint(1) DEFAULT &#39;0&#39; COMMENT &#39;0未删除 1删除&#39;,\n  PRIMARY KEY (`id`)\n) ENGINE=InnoDB DEFAULT CHARSET=utf8mb4 COMMENT=&#39;活动广场表&#39;;&amp;quot;},&amp;quot;attribs&amp;quot;:{&amp;quot;0&amp;quot;:&amp;quot;*0|g+og*0+1k&amp;quot;}},&amp;quot;apool&amp;quot;:{&amp;quot;numToAttrib&amp;quot;:{&amp;quot;0&amp;quot;:[&amp;quot;author&amp;quot;,&amp;quot;7220235268358848515&amp;quot;]},&amp;quot;nextNum&amp;quot;:1}},&amp;quot;type&amp;quot;:&amp;quot;text&amp;quot;,&amp;quot;referenceRecordMap&amp;quot;:{},&amp;quot;extra&amp;quot;:{&amp;quot;channel&amp;quot;:&amp;quot;saas&amp;quot;,&amp;quot;pasteRandomId&amp;quot;:&amp;quot;44fd6253-43ac-45ac-8588-8f718b8ea525&amp;quot;,&amp;quot;mention_page_title&amp;quot;:{},&amp;quot;external_mention_url&amp;quot;:{}},&amp;quot;isKeepQuoteContainer&amp;quot;:false,&amp;quot;isFromCode&amp;quot;:true,&amp;quot;selection&amp;quot;:[{&amp;quot;id&amp;quot;:14,&amp;quot;type&amp;quot;:&amp;quot;text&amp;quot;,&amp;quot;selection&amp;quot;:{&amp;quot;start&amp;quot;:0,&amp;quot;end&amp;quot;:936},&amp;quot;recordId&amp;quot;:&amp;quot;QTNEdN7cpoGi0txkAPdcTSP8n4N&amp;quot;}],&amp;quot;payloadMap&amp;quot;:{},&amp;quot;isCut&amp;quot;:false}&quot;&gt;&lt;/span&gt;&lt;/div&gt;&lt;/div&gt;&lt;/div&gt;&lt;/div&gt;&lt;/div&gt;&lt;/div&gt;&lt;/div&gt;&lt;/div&gt;" style="shape=partialRectangle;connectable=0;fillColor=default;top=0;left=0;bottom=0;right=0;align=left;spacingLeft=6;overflow=hidden;whiteSpace=wrap;html=1;" vertex="1" parent="kAN6zUIRQIHeMg0-f0UK-13">
          <mxGeometry x="30" width="450" height="170" as="geometry">
            <mxRectangle width="450" height="170" as="alternateBounds" />
          </mxGeometry>
        </mxCell>
        <mxCell id="kAN6zUIRQIHeMg0-f0UK-16" value="&lt;span style=&quot;background-color: rgb(213, 232, 212);&quot;&gt;square_activity_product（活动商品表)&lt;/span&gt;" style="shape=table;startSize=30;container=1;collapsible=1;childLayout=tableLayout;fixedRows=1;rowLines=0;fontStyle=1;align=center;resizeLast=1;html=1;labelBackgroundColor=default;fillColor=#d5e8d4;strokeColor=#82b366;" vertex="1" parent="1">
          <mxGeometry x="-2560" y="-270" width="530" height="360" as="geometry" />
        </mxCell>
        <mxCell id="kAN6zUIRQIHeMg0-f0UK-17" value="" style="shape=tableRow;horizontal=0;startSize=0;swimlaneHead=0;swimlaneBody=0;fillColor=none;collapsible=0;dropTarget=0;points=[[0,0.5],[1,0.5]];portConstraint=eastwest;top=0;left=0;right=0;bottom=1;" vertex="1" parent="kAN6zUIRQIHeMg0-f0UK-16">
          <mxGeometry y="30" width="530" height="30" as="geometry" />
        </mxCell>
        <mxCell id="kAN6zUIRQIHeMg0-f0UK-18" value="PK" style="shape=partialRectangle;connectable=0;fillColor=none;top=0;left=0;bottom=0;right=0;fontStyle=1;overflow=hidden;whiteSpace=wrap;html=1;" vertex="1" parent="kAN6zUIRQIHeMg0-f0UK-17">
          <mxGeometry width="30" height="30" as="geometry">
            <mxRectangle width="30" height="30" as="alternateBounds" />
          </mxGeometry>
        </mxCell>
        <mxCell id="kAN6zUIRQIHeMg0-f0UK-19" value="`ID` bigint(20) NOT NULL AUTO_INCREMENT COMMENT &#39;自增ID&#39;" style="shape=partialRectangle;connectable=0;fillColor=none;top=0;left=0;bottom=0;right=0;align=left;spacingLeft=6;fontStyle=5;overflow=hidden;whiteSpace=wrap;html=1;" vertex="1" parent="kAN6zUIRQIHeMg0-f0UK-17">
          <mxGeometry x="30" width="500" height="30" as="geometry">
            <mxRectangle width="500" height="30" as="alternateBounds" />
          </mxGeometry>
        </mxCell>
        <mxCell id="kAN6zUIRQIHeMg0-f0UK-20" value="" style="shape=tableRow;horizontal=0;startSize=0;swimlaneHead=0;swimlaneBody=0;fillColor=none;collapsible=0;dropTarget=0;points=[[0,0.5],[1,0.5]];portConstraint=eastwest;top=0;left=0;right=0;bottom=0;" vertex="1" parent="kAN6zUIRQIHeMg0-f0UK-16">
          <mxGeometry y="60" width="530" height="300" as="geometry" />
        </mxCell>
        <mxCell id="kAN6zUIRQIHeMg0-f0UK-21" value="" style="shape=partialRectangle;connectable=0;fillColor=none;top=0;left=0;bottom=0;right=0;editable=1;overflow=hidden;whiteSpace=wrap;html=1;" vertex="1" parent="kAN6zUIRQIHeMg0-f0UK-20">
          <mxGeometry width="30" height="300" as="geometry">
            <mxRectangle width="30" height="300" as="alternateBounds" />
          </mxGeometry>
        </mxCell>
        <mxCell id="kAN6zUIRQIHeMg0-f0UK-22" value="&lt;div style=&quot;line-height: 130%;&quot;&gt;&lt;div style=&quot;line-height: 130%;&quot;&gt;&lt;div style=&quot;line-height: 130%;&quot;&gt;&lt;div style=&quot;line-height: 130%;&quot;&gt;&lt;div style=&quot;line-height: 130%;&quot;&gt;&lt;div data-docx-has-block-data=&quot;false&quot; data-page-id=&quot;Co8VdgC0moM7NCxHO37cvej0neh&quot;&gt;&lt;div class=&quot;old-record-id-Ze5vdnJgfoNHqzxl2qscwm99n2c&quot; style=&quot;&quot;&gt;&lt;div class=&quot;old-record-id-Ze5vdnJgfoNHqzxl2qscwm99n2c&quot;&gt;&lt;div data-docx-has-block-data=&quot;false&quot; data-page-id=&quot;NvuWdaZeMolkfJxWdABclu5wnZb&quot;&gt;&lt;div class=&quot;old-record-id-QTNEdN7cpoGi0txkAPdcTSP8n4N&quot; style=&quot;white-space:pre;&quot;&gt;&lt;div data-docx-has-block-data=&quot;false&quot; data-page-id=&quot;NvuWdaZeMolkfJxWdABclu5wnZb&quot;&gt;&lt;div class=&quot;old-record-id-QTNEdN7cpoGi0txkAPdcTSP8n4N&quot;&gt;&lt;div data-docx-has-block-data=&quot;false&quot; data-page-id=&quot;NvuWdaZeMolkfJxWdABclu5wnZb&quot;&gt;&lt;div class=&quot;old-record-id-QTNEdN7cpoGi0txkAPdcTSP8n4N&quot;&gt;CREATE TABLE `square_activity_product` (&lt;br/&gt;  `id` bigint(11) NOT NULL AUTO_INCREMENT COMMENT &#39;主键&#39;,&lt;br/&gt;  `square_activity_id` int(20) NOT NULL COMMENT &#39;活动id&#39;,&lt;br/&gt;  `sku_code` varchar(100) NOT NULL DEFAULT &#39;&#39; COMMENT &#39;商品编码&#39;,&lt;br/&gt;  `sku_name` varchar(200) NOT NULL DEFAULT &#39;&#39; COMMENT &#39;商品名称&#39;,&lt;br/&gt;  `fisrt_category_code` varchar(100) NOT NULL DEFAULT &#39;&#39; COMMENT &#39;一级类目code&#39;,&lt;br/&gt;  `fisrt_category_name` varchar(100) NOT NULL DEFAULT &#39;&#39; COMMENT &#39;一级类目名称&#39;,&lt;br/&gt;  `second_category_code` varchar(100) NOT NULL DEFAULT &#39;&#39; COMMENT &#39;二级类目code&#39;,&lt;br/&gt;  `second_category_name` varchar(100) NOT NULL DEFAULT &#39;&#39; COMMENT &#39;二级类目名称&#39;,&lt;br/&gt;  `status` int(4) DEFAULT &#39;1&#39; COMMENT &#39;1：有效，0：无效&#39;,&lt;br/&gt;  `deleted` int(4) DEFAULT &#39;0&#39; COMMENT &#39;删除&#39;,&lt;br/&gt;  `creator_id` int(20) DEFAULT NULL COMMENT &#39;创建人ID&#39;,&lt;br/&gt;  `create_time` datetime DEFAULT NULL COMMENT &#39;创建时间&#39;,&lt;br/&gt;  `modify_time` datetime DEFAULT NULL COMMENT &#39;最后修改时间&#39;,&lt;br/&gt;  `modifier_id` int(20) DEFAULT NULL COMMENT &#39;最后修改人&#39;,&lt;br/&gt;  PRIMARY KEY (`id`),&lt;br/&gt;  UNIQUE KEY `unq_activityid_sku` (`activity_id`,`sku_code`)&lt;br/&gt;) ENGINE=InnoDB DEFAULT CHARSET=utf8mb4 COMMENT=&#39;促销商品类目表&#39;;&lt;/div&gt;&lt;/div&gt;&lt;span class=&quot;lark-record-clipboard&quot; data-lark-record-format=&quot;docx/text&quot; data-lark-record-data=&quot;{&amp;quot;rootId&amp;quot;:&amp;quot;NvuWdaZeMolkfJxWdABclu5wnZb&amp;quot;,&amp;quot;text&amp;quot;:{&amp;quot;initialAttributedTexts&amp;quot;:{&amp;quot;text&amp;quot;:{&amp;quot;0&amp;quot;:&amp;quot;CREATE TABLE `square_activity_product` (\n  `id` bigint(11) NOT NULL AUTO_INCREMENT COMMENT &#39;主键&#39;,\n  `square_activity_id` int(20) NOT NULL COMMENT &#39;活动id&#39;,\n  `sku_code` varchar(100) NOT NULL DEFAULT &#39;&#39; COMMENT &#39;商品编码&#39;,\n  `sku_name` varchar(200) NOT NULL DEFAULT &#39;&#39; COMMENT &#39;商品名称&#39;,\n  `fisrt_category_code` varchar(100) NOT NULL DEFAULT &#39;&#39; COMMENT &#39;一级类目code&#39;,\n  `fisrt_category_name` varchar(100) NOT NULL DEFAULT &#39;&#39; COMMENT &#39;一级类目名称&#39;,\n  `second_category_code` varchar(100) NOT NULL DEFAULT &#39;&#39; COMMENT &#39;二级类目code&#39;,\n  `second_category_name` varchar(100) NOT NULL DEFAULT &#39;&#39; COMMENT &#39;二级类目名称&#39;,\n  `status` int(4) DEFAULT &#39;1&#39; COMMENT &#39;1：有效，0：无效&#39;,\n  `deleted` int(4) DEFAULT &#39;0&#39; COMMENT &#39;删除&#39;,\n  `creator_id` int(20) DEFAULT NULL COMMENT &#39;创建人ID&#39;,\n  `create_time` datetime DEFAULT NULL COMMENT &#39;创建时间&#39;,\n  `modify_time` datetime DEFAULT NULL COMMENT &#39;最后修改时间&#39;,\n  `modifier_id` int(20) DEFAULT NULL COMMENT &#39;最后修改人&#39;,\n  PRIMARY KEY (`id`),\n  UNIQUE KEY `unq_activityid_sku` (`activity_id`,`sku_code`)\n) ENGINE=InnoDB DEFAULT CHARSET=utf8mb4 COMMENT=&#39;促销商品类目表&#39;;&amp;quot;},&amp;quot;attribs&amp;quot;:{&amp;quot;0&amp;quot;:&amp;quot;*0|h+r7*0+1m&amp;quot;}},&amp;quot;apool&amp;quot;:{&amp;quot;numToAttrib&amp;quot;:{&amp;quot;0&amp;quot;:[&amp;quot;author&amp;quot;,&amp;quot;7220235268358848515&amp;quot;]},&amp;quot;nextNum&amp;quot;:1}},&amp;quot;type&amp;quot;:&amp;quot;text&amp;quot;,&amp;quot;referenceRecordMap&amp;quot;:{},&amp;quot;extra&amp;quot;:{&amp;quot;channel&amp;quot;:&amp;quot;saas&amp;quot;,&amp;quot;pasteRandomId&amp;quot;:&amp;quot;555c9a33-ec2e-444e-a42b-c973e6080c7b&amp;quot;,&amp;quot;mention_page_title&amp;quot;:{},&amp;quot;external_mention_url&amp;quot;:{}},&amp;quot;isKeepQuoteContainer&amp;quot;:false,&amp;quot;isFromCode&amp;quot;:true,&amp;quot;selection&amp;quot;:[{&amp;quot;id&amp;quot;:14,&amp;quot;type&amp;quot;:&amp;quot;text&amp;quot;,&amp;quot;selection&amp;quot;:{&amp;quot;start&amp;quot;:1431,&amp;quot;end&amp;quot;:2468},&amp;quot;recordId&amp;quot;:&amp;quot;QTNEdN7cpoGi0txkAPdcTSP8n4N&amp;quot;}],&amp;quot;payloadMap&amp;quot;:{},&amp;quot;isCut&amp;quot;:false}&quot;&gt;&lt;/span&gt;&lt;/div&gt;&lt;/div&gt;&lt;span class=&quot;lark-record-clipboard&quot; data-lark-record-format=&quot;docx/text&quot; data-lark-record-data=&quot;{&amp;quot;rootId&amp;quot;:&amp;quot;NvuWdaZeMolkfJxWdABclu5wnZb&amp;quot;,&amp;quot;text&amp;quot;:{&amp;quot;initialAttributedTexts&amp;quot;:{&amp;quot;text&amp;quot;:{&amp;quot;0&amp;quot;:&amp;quot;CREATE TABLE `square_activity_collect` (\n  `id` bigint(11) NOT NULL AUTO_INCREMENT,\n  `square_activity_id` bigint(11) NOT NULL COMMENT &#39;广场活动id&#39;,\n  `create_id` bigint(20) DEFAULT &#39;0&#39; COMMENT &#39;创建人&#39;,\n  `create_time` datetime DEFAULT NULL COMMENT &#39;创建时间&#39;,\n  `update_id` bigint(20) DEFAULT &#39;0&#39; COMMENT &#39;更新人&#39;,\n  `update_time` datetime DEFAULT NULL COMMENT &#39;更新时间&#39;,\n  `deleted` tinyint(1) DEFAULT &#39;0&#39; COMMENT &#39;0未删除 1删除&#39;,\n  PRIMARY KEY (`id`)\n) ENGINE=InnoDB DEFAULT CHARSET=utf8mb4 COMMENT=&#39;活动广场收藏表&#39;;&amp;quot;},&amp;quot;attribs&amp;quot;:{&amp;quot;0&amp;quot;:&amp;quot;*0|9+c1*0+1m&amp;quot;}},&amp;quot;apool&amp;quot;:{&amp;quot;numToAttrib&amp;quot;:{&amp;quot;0&amp;quot;:[&amp;quot;author&amp;quot;,&amp;quot;7220235268358848515&amp;quot;]},&amp;quot;nextNum&amp;quot;:1}},&amp;quot;type&amp;quot;:&amp;quot;text&amp;quot;,&amp;quot;referenceRecordMap&amp;quot;:{},&amp;quot;extra&amp;quot;:{&amp;quot;channel&amp;quot;:&amp;quot;saas&amp;quot;,&amp;quot;pasteRandomId&amp;quot;:&amp;quot;5b37b273-c162-4435-8fdf-3f05ffb19653&amp;quot;,&amp;quot;mention_page_title&amp;quot;:{},&amp;quot;external_mention_url&amp;quot;:{}},&amp;quot;isKeepQuoteContainer&amp;quot;:false,&amp;quot;isFromCode&amp;quot;:true,&amp;quot;selection&amp;quot;:[{&amp;quot;id&amp;quot;:14,&amp;quot;type&amp;quot;:&amp;quot;text&amp;quot;,&amp;quot;selection&amp;quot;:{&amp;quot;start&amp;quot;:938,&amp;quot;end&amp;quot;:1429},&amp;quot;recordId&amp;quot;:&amp;quot;QTNEdN7cpoGi0txkAPdcTSP8n4N&amp;quot;}],&amp;quot;payloadMap&amp;quot;:{},&amp;quot;isCut&amp;quot;:false}&quot;&gt;&lt;/span&gt;&lt;/div&gt;&lt;/div&gt;&lt;span class=&quot;lark-record-clipboard&quot; data-lark-record-format=&quot;docx/text&quot; data-lark-record-data=&quot;{&amp;quot;rootId&amp;quot;:&amp;quot;NvuWdaZeMolkfJxWdABclu5wnZb&amp;quot;,&amp;quot;text&amp;quot;:{&amp;quot;initialAttributedTexts&amp;quot;:{&amp;quot;text&amp;quot;:{&amp;quot;0&amp;quot;:&amp;quot;CREATE TABLE `square_activity` (\n  `id` bigint(11) NOT NULL AUTO_INCREMENT,\n  `activity_id` bigint(20) DEFAULT NULL COMMENT &#39;活动id&#39;,\n  `activity_code` varchar(64) DEFAULT NULL COMMENT &#39;活动编码&#39;,\n  `activity_name` varchar(200) DEFAULT NULL COMMENT &#39;活动名称&#39;,\n  `activity_start_time` datetime DEFAULT NULL COMMENT &#39;活动开始时间&#39;,\n  `activity_end_time` datetime DEFAULT NULL COMMENT &#39;活动结束时间&#39;,\n  `activity_status` datetime DEFAULT NULL COMMENT &#39;活动状态 0.无效 1.有效&#39;,\n  `activity_type` tinyint(1) NOT NULL COMMENT &#39;活动类型：0.市场活动 1.满减活动 2.返券活动 4.礼券活动&#39;,\n  `activity_create_time` datetime DEFAULT NULL COMMENT &#39;活动创建时间&#39;,\n  `create_id` bigint(20) DEFAULT &#39;0&#39; COMMENT &#39;创建人&#39;,\n  `create_time` datetime DEFAULT NULL COMMENT &#39;创建时间&#39;,\n  `update_id` bigint(20) DEFAULT &#39;0&#39; COMMENT &#39;更新人&#39;,\n  `update_time` datetime DEFAULT NULL COMMENT &#39;更新时间&#39;,\n  `deleted` tinyint(1) DEFAULT &#39;0&#39; COMMENT &#39;0未删除 1删除&#39;,\n  PRIMARY KEY (`id`)\n) ENGINE=InnoDB DEFAULT CHARSET=utf8mb4 COMMENT=&#39;活动广场表&#39;;&amp;quot;},&amp;quot;attribs&amp;quot;:{&amp;quot;0&amp;quot;:&amp;quot;*0|g+og*0+1k&amp;quot;}},&amp;quot;apool&amp;quot;:{&amp;quot;numToAttrib&amp;quot;:{&amp;quot;0&amp;quot;:[&amp;quot;author&amp;quot;,&amp;quot;7220235268358848515&amp;quot;]},&amp;quot;nextNum&amp;quot;:1}},&amp;quot;type&amp;quot;:&amp;quot;text&amp;quot;,&amp;quot;referenceRecordMap&amp;quot;:{},&amp;quot;extra&amp;quot;:{&amp;quot;channel&amp;quot;:&amp;quot;saas&amp;quot;,&amp;quot;pasteRandomId&amp;quot;:&amp;quot;44fd6253-43ac-45ac-8588-8f718b8ea525&amp;quot;,&amp;quot;mention_page_title&amp;quot;:{},&amp;quot;external_mention_url&amp;quot;:{}},&amp;quot;isKeepQuoteContainer&amp;quot;:false,&amp;quot;isFromCode&amp;quot;:true,&amp;quot;selection&amp;quot;:[{&amp;quot;id&amp;quot;:14,&amp;quot;type&amp;quot;:&amp;quot;text&amp;quot;,&amp;quot;selection&amp;quot;:{&amp;quot;start&amp;quot;:0,&amp;quot;end&amp;quot;:936},&amp;quot;recordId&amp;quot;:&amp;quot;QTNEdN7cpoGi0txkAPdcTSP8n4N&amp;quot;}],&amp;quot;payloadMap&amp;quot;:{},&amp;quot;isCut&amp;quot;:false}&quot;&gt;&lt;/span&gt;&lt;/div&gt;&lt;/div&gt;&lt;/div&gt;&lt;/div&gt;&lt;/div&gt;&lt;/div&gt;&lt;/div&gt;&lt;/div&gt;" style="shape=partialRectangle;connectable=0;fillColor=default;top=0;left=0;bottom=0;right=0;align=left;spacingLeft=6;overflow=hidden;whiteSpace=wrap;html=1;" vertex="1" parent="kAN6zUIRQIHeMg0-f0UK-20">
          <mxGeometry x="30" width="500" height="300" as="geometry">
            <mxRectangle width="500" height="300" as="alternateBounds" />
          </mxGeometry>
        </mxCell>
        <mxCell id="kAN6zUIRQIHeMg0-f0UK-48" style="edgeStyle=orthogonalEdgeStyle;rounded=0;orthogonalLoop=1;jettySize=auto;html=1;entryX=0.5;entryY=0;entryDx=0;entryDy=0;" edge="1" parent="1" source="kAN6zUIRQIHeMg0-f0UK-25" target="kAN6zUIRQIHeMg0-f0UK-41">
          <mxGeometry relative="1" as="geometry" />
        </mxCell>
        <mxCell id="kAN6zUIRQIHeMg0-f0UK-25" value="&lt;span style=&quot;background-color: rgb(213, 232, 212);&quot;&gt;promotion_activity（营销活动)&lt;/span&gt;" style="shape=table;startSize=30;container=1;collapsible=1;childLayout=tableLayout;fixedRows=1;rowLines=0;fontStyle=1;align=center;resizeLast=1;html=1;labelBackgroundColor=default;fillColor=#d5e8d4;strokeColor=#82b366;" vertex="1" parent="1">
          <mxGeometry x="-1280" y="-640" width="470" height="320.00000000000045" as="geometry" />
        </mxCell>
        <mxCell id="kAN6zUIRQIHeMg0-f0UK-26" value="" style="shape=tableRow;horizontal=0;startSize=0;swimlaneHead=0;swimlaneBody=0;fillColor=none;collapsible=0;dropTarget=0;points=[[0,0.5],[1,0.5]];portConstraint=eastwest;top=0;left=0;right=0;bottom=1;" vertex="1" parent="kAN6zUIRQIHeMg0-f0UK-25">
          <mxGeometry y="30" width="470" height="30" as="geometry" />
        </mxCell>
        <mxCell id="kAN6zUIRQIHeMg0-f0UK-27" value="PK" style="shape=partialRectangle;connectable=0;fillColor=none;top=0;left=0;bottom=0;right=0;fontStyle=1;overflow=hidden;whiteSpace=wrap;html=1;" vertex="1" parent="kAN6zUIRQIHeMg0-f0UK-26">
          <mxGeometry width="30" height="30" as="geometry">
            <mxRectangle width="30" height="30" as="alternateBounds" />
          </mxGeometry>
        </mxCell>
        <mxCell id="kAN6zUIRQIHeMg0-f0UK-28" value="`ID` bigint(20) NOT NULL AUTO_INCREMENT COMMENT &#39;自增ID&#39;" style="shape=partialRectangle;connectable=0;fillColor=none;top=0;left=0;bottom=0;right=0;align=left;spacingLeft=6;fontStyle=5;overflow=hidden;whiteSpace=wrap;html=1;" vertex="1" parent="kAN6zUIRQIHeMg0-f0UK-26">
          <mxGeometry x="30" width="440" height="30" as="geometry">
            <mxRectangle width="440" height="30" as="alternateBounds" />
          </mxGeometry>
        </mxCell>
        <mxCell id="kAN6zUIRQIHeMg0-f0UK-29" value="" style="shape=tableRow;horizontal=0;startSize=0;swimlaneHead=0;swimlaneBody=0;fillColor=none;collapsible=0;dropTarget=0;points=[[0,0.5],[1,0.5]];portConstraint=eastwest;top=0;left=0;right=0;bottom=0;" vertex="1" parent="kAN6zUIRQIHeMg0-f0UK-25">
          <mxGeometry y="60" width="470" height="260" as="geometry" />
        </mxCell>
        <mxCell id="kAN6zUIRQIHeMg0-f0UK-30" value="" style="shape=partialRectangle;connectable=0;fillColor=none;top=0;left=0;bottom=0;right=0;editable=1;overflow=hidden;whiteSpace=wrap;html=1;" vertex="1" parent="kAN6zUIRQIHeMg0-f0UK-29">
          <mxGeometry width="30" height="260" as="geometry">
            <mxRectangle width="30" height="260" as="alternateBounds" />
          </mxGeometry>
        </mxCell>
        <mxCell id="kAN6zUIRQIHeMg0-f0UK-31" value="&lt;div style=&quot;line-height: 130%;&quot;&gt;&lt;div style=&quot;line-height: 130%;&quot;&gt;&lt;div style=&quot;line-height: 130%;&quot;&gt;&lt;div style=&quot;line-height: 130%;&quot;&gt;&lt;div style=&quot;line-height: 130%;&quot;&gt;&lt;div data-docx-has-block-data=&quot;false&quot; data-page-id=&quot;Co8VdgC0moM7NCxHO37cvej0neh&quot;&gt;&lt;div class=&quot;old-record-id-Ze5vdnJgfoNHqzxl2qscwm99n2c&quot; style=&quot;&quot;&gt;&lt;div class=&quot;old-record-id-Ze5vdnJgfoNHqzxl2qscwm99n2c&quot;&gt;&lt;div data-docx-has-block-data=&quot;false&quot; data-page-id=&quot;NvuWdaZeMolkfJxWdABclu5wnZb&quot;&gt;&lt;div class=&quot;old-record-id-QTNEdN7cpoGi0txkAPdcTSP8n4N&quot; style=&quot;&quot;&gt;&lt;span style=&quot;white-space: pre;&quot;&gt;CREATE TABLE `promotion_activity` (&lt;br/&gt;  `id` int(20) unsigned NOT NULL AUTO_INCREMENT COMMENT &#39;主键&#39;,&lt;br/&gt;  `parent_id` int(20) DEFAULT NULL COMMENT &#39;归属活动ID  多协议&#39;,&lt;br/&gt;  `branch_id` int(20) DEFAULT NULL COMMENT &#39;主分支活动id  &#39;,&lt;br/&gt;  `activity_name` varchar(200) DEFAULT NULL COMMENT &#39;活动名称&#39;,&lt;br/&gt;  `activity_code` varchar(100) DEFAULT NULL COMMENT &#39;活动编码&#39;,&lt;br/&gt;  `start_time` datetime DEFAULT NULL COMMENT &#39;开始时间&#39;,&lt;br/&gt;  `end_time` datetime DEFAULT NULL COMMENT &#39;结束时间&#39;,&lt;br/&gt;  `actual_start_time` datetime DEFAULT NULL COMMENT &#39;实际开始时间&#39;,&lt;br/&gt;  `actual_end_time` datetime DEFAULT NULL COMMENT &#39;实际结束时间&#39;,&lt;br/&gt;  `full_amount` decimal(10,2) DEFAULT NULL COMMENT &#39;满&#39;,&lt;br/&gt;  `cut_amount` decimal(10,2) DEFAULT NULL COMMENT &#39;减&#39;,&lt;br/&gt;  `activity_type` int(4) unsigned NOT NULL DEFAULT &#39;4&#39; COMMENT &#39;活动类型 1 type1,2 type2,3 type3,4 type4&#39;,&lt;br/&gt;  `status` int(4) unsigned NOT NULL DEFAULT &#39;0&#39; COMMENT &#39;状态 （0：草稿，1：已提交，2：已审批，3：已拒绝）&#39;,&lt;br/&gt;  `publish_status` int(4) unsigned NOT NULL DEFAULT &#39;0&#39; COMMENT &#39;发布状态（0：未发布，1：已发布，2：已终止）&#39;,&lt;br/&gt;  `remark` varchar(2000) DEFAULT NULL COMMENT &#39;备注信息&#39;,&lt;br/&gt;  `creator_id` int(20) DEFAULT NULL COMMENT &#39;创建人ID&#39;,&lt;br/&gt;  `create_time` datetime DEFAULT NULL COMMENT &#39;创建时间&#39;,&lt;br/&gt;  `modify_time` datetime DEFAULT NULL ON UPDATE CURRENT_TIMESTAMP COMMENT &#39;最后修改时间&#39;,&lt;br/&gt;  `modifier_id` int(20) DEFAULT NULL COMMENT &#39;最后修改人&#39;,&lt;br/&gt;  `deleted` int(4) unsigned NOT NULL DEFAULT &#39;0&#39; COMMENT &#39;删除（0：未删除，1：已删除）&#39;,&lt;br/&gt;  `rollback_reason` varchar(2000) CHARACTER SET utf8 DEFAULT &#39;&#39; COMMENT &#39;回退原因&#39;,&lt;br/&gt;  `coupon_flag` tinyint(3) unsigned NOT NULL DEFAULT &#39;0&#39; COMMENT &#39;优惠券活动标识 （0：非优惠券，1：优惠券,2:折扣活动,3:积分活动）&#39;,&lt;br/&gt;  `page_config_id` bigint(20) DEFAULT NULL COMMENT &#39;关联页面配置ID&#39;,&lt;br/&gt;  `event_track_code` varchar(2000) DEFAULT NULL COMMENT &#39;埋点配置&#39;,&lt;br/&gt;  `node_code` varchar(255) DEFAULT NULL COMMENT &#39;审核节点编码&#39;,&lt;br/&gt;  `node_name` varchar(255) DEFAULT NULL COMMENT &#39;审核节点名称&#39;,&lt;br/&gt;  `node_user` varchar(20) DEFAULT NULL COMMENT &#39;指定审批人&#39;,&lt;br/&gt;  `return_flag` int(4) DEFAULT NULL COMMENT &#39;审核退回标志（1.退回）&#39;,&lt;br/&gt;  `pre_id` int(20) DEFAULT NULL COMMENT &#39;原活动ID 加料&#39;,&lt;br/&gt;  `lz_channel` varchar(32) DEFAULT NULL COMMENT &#39;留资渠道,多个逗个分隔(1-中台活动H5,2-OMS留资H5)&#39;,&lt;br/&gt;  `superimposed_feeding` varchar(32) DEFAULT NULL COMMENT &#39;是否优惠叠加加料（0,不叠加，1，叠加）&#39;,&lt;br/&gt;  `courtesyCoupon_id` int(11) DEFAULT NULL COMMENT &#39;礼劵活动id&#39;,&lt;br/&gt;  `isAutomation` int(4) DEFAULT NULL COMMENT &#39;是否自动发劵&#39;,&lt;br/&gt;  `dcFlag` int(4) DEFAULT NULL COMMENT &#39;是否关联dc&#39;,&lt;br/&gt;  `vendor_code` varchar(20) DEFAULT NULL COMMENT &#39;供应商编号&#39;,&lt;br/&gt;  `department_code` tinytext COMMENT &#39;活动所关联的部类号&#39;,&lt;br/&gt;  `include` int(5) DEFAULT NULL COMMENT &#39;包含排他&#39;,&lt;br/&gt;  `budget_type` int(4) DEFAULT NULL COMMENT &#39;预算类型(0固定金额1固定比例)&#39;,&lt;br/&gt;  `commitment_percent` varchar(100) DEFAULT NULL COMMENT &#39;供应商承担比例&#39;,&lt;br/&gt;  `adviertisement` varchar(2000) DEFAULT NULL COMMENT &#39;广告词&#39;,&lt;br/&gt;  `activity_reward_type` int(5) DEFAULT NULL COMMENT &#39;循环0,阶梯1&#39;,&lt;br/&gt;  `sendCouponChannel` varchar(100) DEFAULT NULL COMMENT &#39;&quot;1&quot;: &quot;零售&quot;, &quot;2&quot;: &quot;装潢中心&quot;, &quot;3&quot;: &quot;团购&quot;, &quot;4&quot;: &quot;直销&quot;, &quot;5&quot;: &quot;B2B&quot;, &quot;6&quot;: &quot;家装套餐&quot;, &quot;7&quot;: &quot;线上销售&quot;, &quot;8&quot;: &quot;S2B&quot;&#39;,&lt;br/&gt;  `useCouponChannel` varchar(100) DEFAULT NULL COMMENT &#39;&quot;1&quot;: &quot;零售&quot;, &quot;2&quot;: &quot;装潢中心&quot;, &quot;3&quot;: &quot;团购&quot;, &quot;4&quot;: &quot;直销&quot;, &quot;5&quot;: &quot;B2B&quot;, &quot;6&quot;: &quot;家装套餐&quot;, &quot;7&quot;: &quot;线上销售&quot;, &quot;8&quot;: &quot;S2B&quot;&#39;,&lt;br/&gt;  `isMarketBear` int(4) DEFAULT NULL COMMENT &#39;是否市场部自承担活动(1是,0否)&#39;,&lt;br/&gt;  `couponType` varchar(20) DEFAULT &#39;&#39; COMMENT &#39;优惠券类型&#39;,&lt;br/&gt;  `card_type` tinyint(5) DEFAULT &#39;1&#39; COMMENT &#39;会员卡类型 1会员卡类型,2会员卡号&#39;,&lt;br/&gt;  `customer_price` int(4) DEFAULT NULL COMMENT &#39;会员价是否&#39;,&lt;br/&gt;  `discount_mode` tinyint(3) DEFAULT &#39;0&#39; COMMENT &#39;满减模式 (0默认，1组合，品牌联盟) &#39;,&lt;br/&gt;  `discount_nature` tinyint(3) DEFAULT &#39;0&#39; COMMENT &#39;合同性质（0前置，1加购）&#39;,&lt;br/&gt;  `fix_price` tinyint(3) DEFAULT NULL COMMENT &#39;定价活动唯一标识&#39;,&lt;br/&gt;  `isSyn` tinyint(3) DEFAULT &#39;0&#39; COMMENT &#39;是否同步折扣到sap（0否，1是）&#39;,&lt;br/&gt;  `tag_id` int(4) DEFAULT NULL COMMENT &#39;活动标签&#39;,&lt;br/&gt;  `syn_flag` int(4) DEFAULT NULL,&lt;br/&gt;  `plus_customer_flag` tinyint(5) DEFAULT &#39;0&#39; COMMENT &#39;是否plus会员专享,1.是；0.否&#39;,&lt;br/&gt;  `channel_type_code` varchar(30) DEFAULT NULL COMMENT &#39;三级渠道编码&#39;,&lt;br/&gt;  `user_channel_type_code` varchar(30) DEFAULT NULL COMMENT &#39;用券三级渠道编码&#39;,&lt;br/&gt;  `ship_type` tinyint(2) DEFAULT NULL COMMENT &#39;赠送发货类型：1、下单即发货，2、指定时间发货（赠品活动使用）&#39;,&lt;br/&gt;  `ship_time` datetime DEFAULT NULL COMMENT &#39;赠送发货时间（赠品活动使用）&#39;,&lt;br/&gt;  `multiple_contract_code` varchar(64) DEFAULT NULL COMMENT &#39;可复用协议号&#39;,&lt;br/&gt;  PRIMARY KEY (`id`),&lt;br/&gt;  UNIQUE KEY `index_code` (`activity_code`) USING BTREE,&lt;br/&gt;  KEY `index_vendor_code` (`vendor_code`) USING BTREE,&lt;br/&gt;  KEY `index_department_code` (`department_code`(15)) USING BTREE,&lt;br/&gt;  KEY `index_courtesyCoupon_id` (`courtesyCoupon_id`) USING BTREE,&lt;br/&gt;  KEY `idx_branchid` (`branch_id`)&lt;br/&gt;) ENGINE=InnoDB AUTO_INCREMENT=115843 DEFAULT CHARSET=utf8mb4 COMMENT=&#39;促销活动基本信息表&#39;;&lt;/span&gt;&lt;br&gt;&lt;/div&gt;&lt;/div&gt;&lt;span class=&quot;lark-record-clipboard&quot; data-lark-record-format=&quot;docx/text&quot; data-lark-record-data=&quot;{&amp;quot;rootId&amp;quot;:&amp;quot;NvuWdaZeMolkfJxWdABclu5wnZb&amp;quot;,&amp;quot;text&amp;quot;:{&amp;quot;initialAttributedTexts&amp;quot;:{&amp;quot;text&amp;quot;:{&amp;quot;0&amp;quot;:&amp;quot;CREATE TABLE `square_activity` (\n  `id` bigint(11) NOT NULL AUTO_INCREMENT,\n  `activity_id` bigint(20) DEFAULT NULL COMMENT &#39;活动id&#39;,\n  `activity_code` varchar(64) DEFAULT NULL COMMENT &#39;活动编码&#39;,\n  `activity_name` varchar(200) DEFAULT NULL COMMENT &#39;活动名称&#39;,\n  `activity_start_time` datetime DEFAULT NULL COMMENT &#39;活动开始时间&#39;,\n  `activity_end_time` datetime DEFAULT NULL COMMENT &#39;活动结束时间&#39;,\n  `activity_status` datetime DEFAULT NULL COMMENT &#39;活动状态 0.无效 1.有效&#39;,\n  `activity_type` tinyint(1) NOT NULL COMMENT &#39;活动类型：0.市场活动 1.满减活动 2.返券活动 4.礼券活动&#39;,\n  `activity_create_time` datetime DEFAULT NULL COMMENT &#39;活动创建时间&#39;,\n  `create_id` bigint(20) DEFAULT &#39;0&#39; COMMENT &#39;创建人&#39;,\n  `create_time` datetime DEFAULT NULL COMMENT &#39;创建时间&#39;,\n  `update_id` bigint(20) DEFAULT &#39;0&#39; COMMENT &#39;更新人&#39;,\n  `update_time` datetime DEFAULT NULL COMMENT &#39;更新时间&#39;,\n  `deleted` tinyint(1) DEFAULT &#39;0&#39; COMMENT &#39;0未删除 1删除&#39;,\n  PRIMARY KEY (`id`)\n) ENGINE=InnoDB DEFAULT CHARSET=utf8mb4 COMMENT=&#39;活动广场表&#39;;&amp;quot;},&amp;quot;attribs&amp;quot;:{&amp;quot;0&amp;quot;:&amp;quot;*0|g+og*0+1k&amp;quot;}},&amp;quot;apool&amp;quot;:{&amp;quot;numToAttrib&amp;quot;:{&amp;quot;0&amp;quot;:[&amp;quot;author&amp;quot;,&amp;quot;7220235268358848515&amp;quot;]},&amp;quot;nextNum&amp;quot;:1}},&amp;quot;type&amp;quot;:&amp;quot;text&amp;quot;,&amp;quot;referenceRecordMap&amp;quot;:{},&amp;quot;extra&amp;quot;:{&amp;quot;channel&amp;quot;:&amp;quot;saas&amp;quot;,&amp;quot;pasteRandomId&amp;quot;:&amp;quot;44fd6253-43ac-45ac-8588-8f718b8ea525&amp;quot;,&amp;quot;mention_page_title&amp;quot;:{},&amp;quot;external_mention_url&amp;quot;:{}},&amp;quot;isKeepQuoteContainer&amp;quot;:false,&amp;quot;isFromCode&amp;quot;:true,&amp;quot;selection&amp;quot;:[{&amp;quot;id&amp;quot;:14,&amp;quot;type&amp;quot;:&amp;quot;text&amp;quot;,&amp;quot;selection&amp;quot;:{&amp;quot;start&amp;quot;:0,&amp;quot;end&amp;quot;:936},&amp;quot;recordId&amp;quot;:&amp;quot;QTNEdN7cpoGi0txkAPdcTSP8n4N&amp;quot;}],&amp;quot;payloadMap&amp;quot;:{},&amp;quot;isCut&amp;quot;:false}&quot;&gt;&lt;/span&gt;&lt;/div&gt;&lt;/div&gt;&lt;/div&gt;&lt;/div&gt;&lt;/div&gt;&lt;/div&gt;&lt;/div&gt;&lt;/div&gt;" style="shape=partialRectangle;connectable=0;fillColor=default;top=0;left=0;bottom=0;right=0;align=left;spacingLeft=6;overflow=hidden;whiteSpace=wrap;html=1;" vertex="1" parent="kAN6zUIRQIHeMg0-f0UK-29">
          <mxGeometry x="30" width="440" height="260" as="geometry">
            <mxRectangle width="440" height="260" as="alternateBounds" />
          </mxGeometry>
        </mxCell>
        <mxCell id="kAN6zUIRQIHeMg0-f0UK-32" value="&lt;span style=&quot;background-color: rgb(213, 232, 212);&quot;&gt;activity_common_data（市场活动)&lt;/span&gt;" style="shape=table;startSize=30;container=1;collapsible=1;childLayout=tableLayout;fixedRows=1;rowLines=0;fontStyle=1;align=center;resizeLast=1;html=1;labelBackgroundColor=default;fillColor=#d5e8d4;strokeColor=#82b366;" vertex="1" parent="1">
          <mxGeometry x="-1280" y="-1230" width="470" height="340" as="geometry" />
        </mxCell>
        <mxCell id="kAN6zUIRQIHeMg0-f0UK-33" value="" style="shape=tableRow;horizontal=0;startSize=0;swimlaneHead=0;swimlaneBody=0;fillColor=none;collapsible=0;dropTarget=0;points=[[0,0.5],[1,0.5]];portConstraint=eastwest;top=0;left=0;right=0;bottom=1;" vertex="1" parent="kAN6zUIRQIHeMg0-f0UK-32">
          <mxGeometry y="30" width="470" height="30" as="geometry" />
        </mxCell>
        <mxCell id="kAN6zUIRQIHeMg0-f0UK-34" value="PK" style="shape=partialRectangle;connectable=0;fillColor=none;top=0;left=0;bottom=0;right=0;fontStyle=1;overflow=hidden;whiteSpace=wrap;html=1;" vertex="1" parent="kAN6zUIRQIHeMg0-f0UK-33">
          <mxGeometry width="30" height="30" as="geometry">
            <mxRectangle width="30" height="30" as="alternateBounds" />
          </mxGeometry>
        </mxCell>
        <mxCell id="kAN6zUIRQIHeMg0-f0UK-35" value="`ID` bigint(20) NOT NULL AUTO_INCREMENT COMMENT &#39;自增ID&#39;" style="shape=partialRectangle;connectable=0;fillColor=none;top=0;left=0;bottom=0;right=0;align=left;spacingLeft=6;fontStyle=5;overflow=hidden;whiteSpace=wrap;html=1;" vertex="1" parent="kAN6zUIRQIHeMg0-f0UK-33">
          <mxGeometry x="30" width="440" height="30" as="geometry">
            <mxRectangle width="440" height="30" as="alternateBounds" />
          </mxGeometry>
        </mxCell>
        <mxCell id="kAN6zUIRQIHeMg0-f0UK-36" value="" style="shape=tableRow;horizontal=0;startSize=0;swimlaneHead=0;swimlaneBody=0;fillColor=none;collapsible=0;dropTarget=0;points=[[0,0.5],[1,0.5]];portConstraint=eastwest;top=0;left=0;right=0;bottom=0;" vertex="1" parent="kAN6zUIRQIHeMg0-f0UK-32">
          <mxGeometry y="60" width="470" height="280" as="geometry" />
        </mxCell>
        <mxCell id="kAN6zUIRQIHeMg0-f0UK-37" value="" style="shape=partialRectangle;connectable=0;fillColor=none;top=0;left=0;bottom=0;right=0;editable=1;overflow=hidden;whiteSpace=wrap;html=1;" vertex="1" parent="kAN6zUIRQIHeMg0-f0UK-36">
          <mxGeometry width="30" height="280" as="geometry">
            <mxRectangle width="30" height="280" as="alternateBounds" />
          </mxGeometry>
        </mxCell>
        <mxCell id="kAN6zUIRQIHeMg0-f0UK-38" value="&lt;div style=&quot;line-height: 130%;&quot;&gt;&lt;div style=&quot;line-height: 130%;&quot;&gt;&lt;div style=&quot;line-height: 130%;&quot;&gt;&lt;div style=&quot;line-height: 130%;&quot;&gt;&lt;div style=&quot;line-height: 130%;&quot;&gt;&lt;div data-docx-has-block-data=&quot;false&quot; data-page-id=&quot;Co8VdgC0moM7NCxHO37cvej0neh&quot;&gt;&lt;div class=&quot;old-record-id-Ze5vdnJgfoNHqzxl2qscwm99n2c&quot; style=&quot;&quot;&gt;&lt;div class=&quot;old-record-id-Ze5vdnJgfoNHqzxl2qscwm99n2c&quot;&gt;&lt;div data-docx-has-block-data=&quot;false&quot; data-page-id=&quot;NvuWdaZeMolkfJxWdABclu5wnZb&quot;&gt;&lt;div class=&quot;old-record-id-QTNEdN7cpoGi0txkAPdcTSP8n4N&quot; style=&quot;&quot;&gt;&lt;span style=&quot;white-space: pre;&quot;&gt;CREATE TABLE `activity_common_data` (&lt;br/&gt;  `id` bigint(20) NOT NULL AUTO_INCREMENT COMMENT &#39;主键id&#39;,&lt;br/&gt;  `activity_code` varchar(20) DEFAULT NULL COMMENT &#39;活动编号&#39;,&lt;br/&gt;  `activity_target_code` varchar(20) DEFAULT NULL COMMENT &#39;活动关联系统编号（market）&#39;,&lt;br/&gt;  `activity_name` varchar(255) DEFAULT NULL COMMENT &#39;活动名称&#39;,&lt;br/&gt;  `activity_type` varchar(64) DEFAULT NULL COMMENT &#39;开发类型（ams、dev）&#39;,&lt;br/&gt;  `activity_type_value` varchar(64) DEFAULT NULL COMMENT &#39;活动类型（1商品、2留资、3优惠券、4积分、5其他）&#39;,&lt;br/&gt;  `activity_status` tinyint(2) DEFAULT NULL COMMENT &#39;活动状态（1上线中、0已下线）&#39;,&lt;br/&gt;  `start_time` datetime DEFAULT NULL COMMENT &#39;活动开始时间&#39;,&lt;br/&gt;  `end_time` datetime DEFAULT NULL COMMENT &#39;活动结束时间&#39;,&lt;br/&gt;  `publish_time` datetime DEFAULT NULL COMMENT &#39;发布时间&#39;,&lt;br/&gt;  `target_users` bigint(20) DEFAULT NULL COMMENT &#39;参与用户数&#39;,&lt;br/&gt;  `target_orders` bigint(20) DEFAULT NULL COMMENT &#39;关联订单数&#39;,&lt;br/&gt;  `page_url` varchar(255) DEFAULT NULL COMMENT &#39;活动页面链接&#39;,&lt;br/&gt;  `page_img` varchar(255) DEFAULT NULL COMMENT &#39;活动预览图&#39;,&lt;br/&gt;  `code_url` text COMMENT &#39;二维码&#39;,&lt;br/&gt;  `city_codes` varchar(1000) DEFAULT NULL COMMENT &#39;城市ids&#39;,&lt;br/&gt;  `city_json` varchar(1000) DEFAULT NULL COMMENT &#39;城市json&#39;,&lt;br/&gt;  `shop_codes` varchar(1000) DEFAULT NULL COMMENT &#39;门店ids&#39;,&lt;br/&gt;  `shop_json` varchar(1000) DEFAULT NULL COMMENT &#39;门店json&#39;,&lt;br/&gt;  `sort` tinyint(4) DEFAULT NULL COMMENT &#39;排序&#39;,&lt;br/&gt;  `is_wecom_show` tinyint(2) DEFAULT &#39;0&#39; COMMENT &#39;企业微信是否显示(1: 显示 0: 不显示)&#39;,&lt;br/&gt;  `create_id` bigint(20) DEFAULT &#39;0&#39; COMMENT &#39;创建人&#39;,&lt;br/&gt;  `create_time` datetime NOT NULL COMMENT &#39;创建时间&#39;,&lt;br/&gt;  `create_name` varchar(20) DEFAULT NULL COMMENT &#39;创建人名称&#39;,&lt;br/&gt;  `update_id` bigint(20) DEFAULT &#39;0&#39; COMMENT &#39;更新人&#39;,&lt;br/&gt;  `update_time` datetime NOT NULL COMMENT &#39;修改时间&#39;,&lt;br/&gt;  `deleted` tinyint(2) NOT NULL DEFAULT &#39;0&#39; COMMENT &#39;是否已删除，1:是，0:否&#39;,&lt;br/&gt;  PRIMARY KEY (`id`),&lt;br/&gt;  UNIQUE KEY `activity_code_UNIQUE` (`activity_code`) USING BTREE,&lt;br/&gt;  UNIQUE KEY `activity_target_code_UNIQUE` (`activity_target_code`) USING BTREE&lt;br/&gt;) ENGINE=InnoDB AUTO_INCREMENT=683230 DEFAULT CHARSET=utf8mb4 COMMENT=&#39;活动数据看板主表&#39;;&lt;/span&gt;&lt;br&gt;&lt;/div&gt;&lt;/div&gt;&lt;span class=&quot;lark-record-clipboard&quot; data-lark-record-format=&quot;docx/text&quot; data-lark-record-data=&quot;{&amp;quot;rootId&amp;quot;:&amp;quot;NvuWdaZeMolkfJxWdABclu5wnZb&amp;quot;,&amp;quot;text&amp;quot;:{&amp;quot;initialAttributedTexts&amp;quot;:{&amp;quot;text&amp;quot;:{&amp;quot;0&amp;quot;:&amp;quot;CREATE TABLE `square_activity` (\n  `id` bigint(11) NOT NULL AUTO_INCREMENT,\n  `activity_id` bigint(20) DEFAULT NULL COMMENT &#39;活动id&#39;,\n  `activity_code` varchar(64) DEFAULT NULL COMMENT &#39;活动编码&#39;,\n  `activity_name` varchar(200) DEFAULT NULL COMMENT &#39;活动名称&#39;,\n  `activity_start_time` datetime DEFAULT NULL COMMENT &#39;活动开始时间&#39;,\n  `activity_end_time` datetime DEFAULT NULL COMMENT &#39;活动结束时间&#39;,\n  `activity_status` datetime DEFAULT NULL COMMENT &#39;活动状态 0.无效 1.有效&#39;,\n  `activity_type` tinyint(1) NOT NULL COMMENT &#39;活动类型：0.市场活动 1.满减活动 2.返券活动 4.礼券活动&#39;,\n  `activity_create_time` datetime DEFAULT NULL COMMENT &#39;活动创建时间&#39;,\n  `create_id` bigint(20) DEFAULT &#39;0&#39; COMMENT &#39;创建人&#39;,\n  `create_time` datetime DEFAULT NULL COMMENT &#39;创建时间&#39;,\n  `update_id` bigint(20) DEFAULT &#39;0&#39; COMMENT &#39;更新人&#39;,\n  `update_time` datetime DEFAULT NULL COMMENT &#39;更新时间&#39;,\n  `deleted` tinyint(1) DEFAULT &#39;0&#39; COMMENT &#39;0未删除 1删除&#39;,\n  PRIMARY KEY (`id`)\n) ENGINE=InnoDB DEFAULT CHARSET=utf8mb4 COMMENT=&#39;活动广场表&#39;;&amp;quot;},&amp;quot;attribs&amp;quot;:{&amp;quot;0&amp;quot;:&amp;quot;*0|g+og*0+1k&amp;quot;}},&amp;quot;apool&amp;quot;:{&amp;quot;numToAttrib&amp;quot;:{&amp;quot;0&amp;quot;:[&amp;quot;author&amp;quot;,&amp;quot;7220235268358848515&amp;quot;]},&amp;quot;nextNum&amp;quot;:1}},&amp;quot;type&amp;quot;:&amp;quot;text&amp;quot;,&amp;quot;referenceRecordMap&amp;quot;:{},&amp;quot;extra&amp;quot;:{&amp;quot;channel&amp;quot;:&amp;quot;saas&amp;quot;,&amp;quot;pasteRandomId&amp;quot;:&amp;quot;44fd6253-43ac-45ac-8588-8f718b8ea525&amp;quot;,&amp;quot;mention_page_title&amp;quot;:{},&amp;quot;external_mention_url&amp;quot;:{}},&amp;quot;isKeepQuoteContainer&amp;quot;:false,&amp;quot;isFromCode&amp;quot;:true,&amp;quot;selection&amp;quot;:[{&amp;quot;id&amp;quot;:14,&amp;quot;type&amp;quot;:&amp;quot;text&amp;quot;,&amp;quot;selection&amp;quot;:{&amp;quot;start&amp;quot;:0,&amp;quot;end&amp;quot;:936},&amp;quot;recordId&amp;quot;:&amp;quot;QTNEdN7cpoGi0txkAPdcTSP8n4N&amp;quot;}],&amp;quot;payloadMap&amp;quot;:{},&amp;quot;isCut&amp;quot;:false}&quot;&gt;&lt;/span&gt;&lt;/div&gt;&lt;/div&gt;&lt;/div&gt;&lt;/div&gt;&lt;/div&gt;&lt;/div&gt;&lt;/div&gt;&lt;/div&gt;" style="shape=partialRectangle;connectable=0;fillColor=default;top=0;left=0;bottom=0;right=0;align=left;spacingLeft=6;overflow=hidden;whiteSpace=wrap;html=1;" vertex="1" parent="kAN6zUIRQIHeMg0-f0UK-36">
          <mxGeometry x="30" width="440" height="280" as="geometry">
            <mxRectangle width="440" height="280" as="alternateBounds" />
          </mxGeometry>
        </mxCell>
        <mxCell id="kAN6zUIRQIHeMg0-f0UK-50" style="edgeStyle=orthogonalEdgeStyle;rounded=0;orthogonalLoop=1;jettySize=auto;html=1;" edge="1" parent="1" source="kAN6zUIRQIHeMg0-f0UK-41">
          <mxGeometry relative="1" as="geometry">
            <mxPoint x="-2030" y="43.333333333333336" as="targetPoint" />
          </mxGeometry>
        </mxCell>
        <mxCell id="kAN6zUIRQIHeMg0-f0UK-41" value="&lt;span style=&quot;background-color: rgb(213, 232, 212);&quot;&gt;promotion_scope（促销范围表)&lt;/span&gt;" style="shape=table;startSize=30;container=1;collapsible=1;childLayout=tableLayout;fixedRows=1;rowLines=0;fontStyle=1;align=center;resizeLast=1;html=1;labelBackgroundColor=default;fillColor=#d5e8d4;strokeColor=#82b366;" vertex="1" parent="1">
          <mxGeometry x="-1280" y="-60" width="470" height="340" as="geometry" />
        </mxCell>
        <mxCell id="kAN6zUIRQIHeMg0-f0UK-42" value="" style="shape=tableRow;horizontal=0;startSize=0;swimlaneHead=0;swimlaneBody=0;fillColor=none;collapsible=0;dropTarget=0;points=[[0,0.5],[1,0.5]];portConstraint=eastwest;top=0;left=0;right=0;bottom=1;" vertex="1" parent="kAN6zUIRQIHeMg0-f0UK-41">
          <mxGeometry y="30" width="470" height="30" as="geometry" />
        </mxCell>
        <mxCell id="kAN6zUIRQIHeMg0-f0UK-43" value="PK" style="shape=partialRectangle;connectable=0;fillColor=none;top=0;left=0;bottom=0;right=0;fontStyle=1;overflow=hidden;whiteSpace=wrap;html=1;" vertex="1" parent="kAN6zUIRQIHeMg0-f0UK-42">
          <mxGeometry width="30" height="30" as="geometry">
            <mxRectangle width="30" height="30" as="alternateBounds" />
          </mxGeometry>
        </mxCell>
        <mxCell id="kAN6zUIRQIHeMg0-f0UK-44" value="`ID` bigint(20) NOT NULL AUTO_INCREMENT COMMENT &#39;自增ID&#39;" style="shape=partialRectangle;connectable=0;fillColor=none;top=0;left=0;bottom=0;right=0;align=left;spacingLeft=6;fontStyle=5;overflow=hidden;whiteSpace=wrap;html=1;" vertex="1" parent="kAN6zUIRQIHeMg0-f0UK-42">
          <mxGeometry x="30" width="440" height="30" as="geometry">
            <mxRectangle width="440" height="30" as="alternateBounds" />
          </mxGeometry>
        </mxCell>
        <mxCell id="kAN6zUIRQIHeMg0-f0UK-45" value="" style="shape=tableRow;horizontal=0;startSize=0;swimlaneHead=0;swimlaneBody=0;fillColor=none;collapsible=0;dropTarget=0;points=[[0,0.5],[1,0.5]];portConstraint=eastwest;top=0;left=0;right=0;bottom=0;" vertex="1" parent="kAN6zUIRQIHeMg0-f0UK-41">
          <mxGeometry y="60" width="470" height="280" as="geometry" />
        </mxCell>
        <mxCell id="kAN6zUIRQIHeMg0-f0UK-46" value="" style="shape=partialRectangle;connectable=0;fillColor=none;top=0;left=0;bottom=0;right=0;editable=1;overflow=hidden;whiteSpace=wrap;html=1;" vertex="1" parent="kAN6zUIRQIHeMg0-f0UK-45">
          <mxGeometry width="30" height="280" as="geometry">
            <mxRectangle width="30" height="280" as="alternateBounds" />
          </mxGeometry>
        </mxCell>
        <mxCell id="kAN6zUIRQIHeMg0-f0UK-47" value="&lt;div style=&quot;line-height: 130%;&quot;&gt;&lt;div style=&quot;line-height: 130%;&quot;&gt;&lt;div style=&quot;line-height: 130%;&quot;&gt;&lt;div style=&quot;line-height: 130%;&quot;&gt;&lt;div style=&quot;line-height: 130%;&quot;&gt;&lt;div data-docx-has-block-data=&quot;false&quot; data-page-id=&quot;Co8VdgC0moM7NCxHO37cvej0neh&quot;&gt;&lt;div class=&quot;old-record-id-Ze5vdnJgfoNHqzxl2qscwm99n2c&quot; style=&quot;&quot;&gt;&lt;div class=&quot;old-record-id-Ze5vdnJgfoNHqzxl2qscwm99n2c&quot;&gt;&lt;div data-docx-has-block-data=&quot;false&quot; data-page-id=&quot;NvuWdaZeMolkfJxWdABclu5wnZb&quot;&gt;&lt;div class=&quot;old-record-id-QTNEdN7cpoGi0txkAPdcTSP8n4N&quot; style=&quot;&quot;&gt;&lt;span style=&quot;white-space: pre;&quot;&gt;CREATE TABLE `promotion_activity` (&lt;br/&gt;  `id` int(20) unsigned NOT NULL AUTO_INCREMENT COMMENT &#39;主键&#39;,&lt;br/&gt;  `parent_id` int(20) DEFAULT NULL COMMENT &#39;归属活动ID  多协议&#39;,&lt;br/&gt;  `branch_id` int(20) DEFAULT NULL COMMENT &#39;主分支活动id  &#39;,&lt;br/&gt;  `activity_name` varchar(200) DEFAULT NULL COMMENT &#39;活动名称&#39;,&lt;br/&gt;  `activity_code` varchar(100) DEFAULT NULL COMMENT &#39;活动编码&#39;,&lt;br/&gt;  `start_time` datetime DEFAULT NULL COMMENT &#39;开始时间&#39;,&lt;br/&gt;  `end_time` datetime DEFAULT NULL COMMENT &#39;结束时间&#39;,&lt;br/&gt;  `actual_start_time` datetime DEFAULT NULL COMMENT &#39;实际开始时间&#39;,&lt;br/&gt;  `actual_end_time` datetime DEFAULT NULL COMMENT &#39;实际结束时间&#39;,&lt;br/&gt;  `full_amount` decimal(10,2) DEFAULT NULL COMMENT &#39;满&#39;,&lt;br/&gt;  `cut_amount` decimal(10,2) DEFAULT NULL COMMENT &#39;减&#39;,&lt;br/&gt;  `activity_type` int(4) unsigned NOT NULL DEFAULT &#39;4&#39; COMMENT &#39;活动类型 1 type1,2 type2,3 type3,4 type4&#39;,&lt;br/&gt;  `status` int(4) unsigned NOT NULL DEFAULT &#39;0&#39; COMMENT &#39;状态 （0：草稿，1：已提交，2：已审批，3：已拒绝）&#39;,&lt;br/&gt;  `publish_status` int(4) unsigned NOT NULL DEFAULT &#39;0&#39; COMMENT &#39;发布状态（0：未发布，1：已发布，2：已终止）&#39;,&lt;br/&gt;  `remark` varchar(2000) DEFAULT NULL COMMENT &#39;备注信息&#39;,&lt;br/&gt;  `creator_id` int(20) DEFAULT NULL COMMENT &#39;创建人ID&#39;,&lt;br/&gt;  `create_time` datetime DEFAULT NULL COMMENT &#39;创建时间&#39;,&lt;br/&gt;  `modify_time` datetime DEFAULT NULL ON UPDATE CURRENT_TIMESTAMP COMMENT &#39;最后修改时间&#39;,&lt;br/&gt;  `modifier_id` int(20) DEFAULT NULL COMMENT &#39;最后修改人&#39;,&lt;br/&gt;  `deleted` int(4) unsigned NOT NULL DEFAULT &#39;0&#39; COMMENT &#39;删除（0：未删除，1：已删除）&#39;,&lt;br/&gt;  `rollback_reason` varchar(2000) CHARACTER SET utf8 DEFAULT &#39;&#39; COMMENT &#39;回退原因&#39;,&lt;br/&gt;  `coupon_flag` tinyint(3) unsigned NOT NULL DEFAULT &#39;0&#39; COMMENT &#39;优惠券活动标识 （0：非优惠券，1：优惠券,2:折扣活动,3:积分活动）&#39;,&lt;br/&gt;  `page_config_id` bigint(20) DEFAULT NULL COMMENT &#39;关联页面配置ID&#39;,&lt;br/&gt;  `event_track_code` varchar(2000) DEFAULT NULL COMMENT &#39;埋点配置&#39;,&lt;br/&gt;  `node_code` varchar(255) DEFAULT NULL COMMENT &#39;审核节点编码&#39;,&lt;br/&gt;  `node_name` varchar(255) DEFAULT NULL COMMENT &#39;审核节点名称&#39;,&lt;br/&gt;  `node_user` varchar(20) DEFAULT NULL COMMENT &#39;指定审批人&#39;,&lt;br/&gt;  `return_flag` int(4) DEFAULT NULL COMMENT &#39;审核退回标志（1.退回）&#39;,&lt;br/&gt;  `pre_id` int(20) DEFAULT NULL COMMENT &#39;原活动ID 加料&#39;,&lt;br/&gt;  `lz_channel` varchar(32) DEFAULT NULL COMMENT &#39;留资渠道,多个逗个分隔(1-中台活动H5,2-OMS留资H5)&#39;,&lt;br/&gt;  `superimposed_feeding` varchar(32) DEFAULT NULL COMMENT &#39;是否优惠叠加加料（0,不叠加，1，叠加）&#39;,&lt;br/&gt;  `courtesyCoupon_id` int(11) DEFAULT NULL COMMENT &#39;礼劵活动id&#39;,&lt;br/&gt;  `isAutomation` int(4) DEFAULT NULL COMMENT &#39;是否自动发劵&#39;,&lt;br/&gt;  `dcFlag` int(4) DEFAULT NULL COMMENT &#39;是否关联dc&#39;,&lt;br/&gt;  `vendor_code` varchar(20) DEFAULT NULL COMMENT &#39;供应商编号&#39;,&lt;br/&gt;  `department_code` tinytext COMMENT &#39;活动所关联的部类号&#39;,&lt;br/&gt;  `include` int(5) DEFAULT NULL COMMENT &#39;包含排他&#39;,&lt;br/&gt;  `budget_type` int(4) DEFAULT NULL COMMENT &#39;预算类型(0固定金额1固定比例)&#39;,&lt;br/&gt;  `commitment_percent` varchar(100) DEFAULT NULL COMMENT &#39;供应商承担比例&#39;,&lt;br/&gt;  `adviertisement` varchar(2000) DEFAULT NULL COMMENT &#39;广告词&#39;,&lt;br/&gt;  `activity_reward_type` int(5) DEFAULT NULL COMMENT &#39;循环0,阶梯1&#39;,&lt;br/&gt;  `sendCouponChannel` varchar(100) DEFAULT NULL COMMENT &#39;&quot;1&quot;: &quot;零售&quot;, &quot;2&quot;: &quot;装潢中心&quot;, &quot;3&quot;: &quot;团购&quot;, &quot;4&quot;: &quot;直销&quot;, &quot;5&quot;: &quot;B2B&quot;, &quot;6&quot;: &quot;家装套餐&quot;, &quot;7&quot;: &quot;线上销售&quot;, &quot;8&quot;: &quot;S2B&quot;&#39;,&lt;br/&gt;  `useCouponChannel` varchar(100) DEFAULT NULL COMMENT &#39;&quot;1&quot;: &quot;零售&quot;, &quot;2&quot;: &quot;装潢中心&quot;, &quot;3&quot;: &quot;团购&quot;, &quot;4&quot;: &quot;直销&quot;, &quot;5&quot;: &quot;B2B&quot;, &quot;6&quot;: &quot;家装套餐&quot;, &quot;7&quot;: &quot;线上销售&quot;, &quot;8&quot;: &quot;S2B&quot;&#39;,&lt;br/&gt;  `isMarketBear` int(4) DEFAULT NULL COMMENT &#39;是否市场部自承担活动(1是,0否)&#39;,&lt;br/&gt;  `couponType` varchar(20) DEFAULT &#39;&#39; COMMENT &#39;优惠券类型&#39;,&lt;br/&gt;  `card_type` tinyint(5) DEFAULT &#39;1&#39; COMMENT &#39;会员卡类型 1会员卡类型,2会员卡号&#39;,&lt;br/&gt;  `customer_price` int(4) DEFAULT NULL COMMENT &#39;会员价是否&#39;,&lt;br/&gt;  `discount_mode` tinyint(3) DEFAULT &#39;0&#39; COMMENT &#39;满减模式 (0默认，1组合，品牌联盟) &#39;,&lt;br/&gt;  `discount_nature` tinyint(3) DEFAULT &#39;0&#39; COMMENT &#39;合同性质（0前置，1加购）&#39;,&lt;br/&gt;  `fix_price` tinyint(3) DEFAULT NULL COMMENT &#39;定价活动唯一标识&#39;,&lt;br/&gt;  `isSyn` tinyint(3) DEFAULT &#39;0&#39; COMMENT &#39;是否同步折扣到sap（0否，1是）&#39;,&lt;br/&gt;  `tag_id` int(4) DEFAULT NULL COMMENT &#39;活动标签&#39;,&lt;br/&gt;  `syn_flag` int(4) DEFAULT NULL,&lt;br/&gt;  `plus_customer_flag` tinyint(5) DEFAULT &#39;0&#39; COMMENT &#39;是否plus会员专享,1.是；0.否&#39;,&lt;br/&gt;  `channel_type_code` varchar(30) DEFAULT NULL COMMENT &#39;三级渠道编码&#39;,&lt;br/&gt;  `user_channel_type_code` varchar(30) DEFAULT NULL COMMENT &#39;用券三级渠道编码&#39;,&lt;br/&gt;  `ship_type` tinyint(2) DEFAULT NULL COMMENT &#39;赠送发货类型：1、下单即发货，2、指定时间发货（赠品活动使用）&#39;,&lt;br/&gt;  `ship_time` datetime DEFAULT NULL COMMENT &#39;赠送发货时间（赠品活动使用）&#39;,&lt;br/&gt;  `multiple_contract_code` varchar(64) DEFAULT NULL COMMENT &#39;可复用协议号&#39;,&lt;br/&gt;  PRIMARY KEY (`id`),&lt;br/&gt;  UNIQUE KEY `index_code` (`activity_code`) USING BTREE,&lt;br/&gt;  KEY `index_vendor_code` (`vendor_code`) USING BTREE,&lt;br/&gt;  KEY `index_department_code` (`department_code`(15)) USING BTREE,&lt;br/&gt;  KEY `index_courtesyCoupon_id` (`courtesyCoupon_id`) USING BTREE,&lt;br/&gt;  KEY `idx_branchid` (`branch_id`)&lt;br/&gt;) ENGINE=InnoDB AUTO_INCREMENT=115843 DEFAULT CHARSET=utf8mb4 COMMENT=&#39;促销活动基本信息表&#39;;&lt;/span&gt;&lt;br&gt;&lt;/div&gt;&lt;/div&gt;&lt;span class=&quot;lark-record-clipboard&quot; data-lark-record-format=&quot;docx/text&quot; data-lark-record-data=&quot;{&amp;quot;rootId&amp;quot;:&amp;quot;NvuWdaZeMolkfJxWdABclu5wnZb&amp;quot;,&amp;quot;text&amp;quot;:{&amp;quot;initialAttributedTexts&amp;quot;:{&amp;quot;text&amp;quot;:{&amp;quot;0&amp;quot;:&amp;quot;CREATE TABLE `square_activity` (\n  `id` bigint(11) NOT NULL AUTO_INCREMENT,\n  `activity_id` bigint(20) DEFAULT NULL COMMENT &#39;活动id&#39;,\n  `activity_code` varchar(64) DEFAULT NULL COMMENT &#39;活动编码&#39;,\n  `activity_name` varchar(200) DEFAULT NULL COMMENT &#39;活动名称&#39;,\n  `activity_start_time` datetime DEFAULT NULL COMMENT &#39;活动开始时间&#39;,\n  `activity_end_time` datetime DEFAULT NULL COMMENT &#39;活动结束时间&#39;,\n  `activity_status` datetime DEFAULT NULL COMMENT &#39;活动状态 0.无效 1.有效&#39;,\n  `activity_type` tinyint(1) NOT NULL COMMENT &#39;活动类型：0.市场活动 1.满减活动 2.返券活动 4.礼券活动&#39;,\n  `activity_create_time` datetime DEFAULT NULL COMMENT &#39;活动创建时间&#39;,\n  `create_id` bigint(20) DEFAULT &#39;0&#39; COMMENT &#39;创建人&#39;,\n  `create_time` datetime DEFAULT NULL COMMENT &#39;创建时间&#39;,\n  `update_id` bigint(20) DEFAULT &#39;0&#39; COMMENT &#39;更新人&#39;,\n  `update_time` datetime DEFAULT NULL COMMENT &#39;更新时间&#39;,\n  `deleted` tinyint(1) DEFAULT &#39;0&#39; COMMENT &#39;0未删除 1删除&#39;,\n  PRIMARY KEY (`id`)\n) ENGINE=InnoDB DEFAULT CHARSET=utf8mb4 COMMENT=&#39;活动广场表&#39;;&amp;quot;},&amp;quot;attribs&amp;quot;:{&amp;quot;0&amp;quot;:&amp;quot;*0|g+og*0+1k&amp;quot;}},&amp;quot;apool&amp;quot;:{&amp;quot;numToAttrib&amp;quot;:{&amp;quot;0&amp;quot;:[&amp;quot;author&amp;quot;,&amp;quot;7220235268358848515&amp;quot;]},&amp;quot;nextNum&amp;quot;:1}},&amp;quot;type&amp;quot;:&amp;quot;text&amp;quot;,&amp;quot;referenceRecordMap&amp;quot;:{},&amp;quot;extra&amp;quot;:{&amp;quot;channel&amp;quot;:&amp;quot;saas&amp;quot;,&amp;quot;pasteRandomId&amp;quot;:&amp;quot;44fd6253-43ac-45ac-8588-8f718b8ea525&amp;quot;,&amp;quot;mention_page_title&amp;quot;:{},&amp;quot;external_mention_url&amp;quot;:{}},&amp;quot;isKeepQuoteContainer&amp;quot;:false,&amp;quot;isFromCode&amp;quot;:true,&amp;quot;selection&amp;quot;:[{&amp;quot;id&amp;quot;:14,&amp;quot;type&amp;quot;:&amp;quot;text&amp;quot;,&amp;quot;selection&amp;quot;:{&amp;quot;start&amp;quot;:0,&amp;quot;end&amp;quot;:936},&amp;quot;recordId&amp;quot;:&amp;quot;QTNEdN7cpoGi0txkAPdcTSP8n4N&amp;quot;}],&amp;quot;payloadMap&amp;quot;:{},&amp;quot;isCut&amp;quot;:false}&quot;&gt;&lt;/span&gt;&lt;/div&gt;&lt;/div&gt;&lt;/div&gt;&lt;/div&gt;&lt;/div&gt;&lt;/div&gt;&lt;/div&gt;&lt;/div&gt;" style="shape=partialRectangle;connectable=0;fillColor=default;top=0;left=0;bottom=0;right=0;align=left;spacingLeft=6;overflow=hidden;whiteSpace=wrap;html=1;" vertex="1" parent="kAN6zUIRQIHeMg0-f0UK-45">
          <mxGeometry x="30" width="440" height="280" as="geometry">
            <mxRectangle width="440" height="280" as="alternateBounds" />
          </mxGeometry>
        </mxCell>
        <mxCell id="kAN6zUIRQIHeMg0-f0UK-51" style="edgeStyle=orthogonalEdgeStyle;rounded=0;orthogonalLoop=1;jettySize=auto;html=1;entryX=1;entryY=0.25;entryDx=0;entryDy=0;" edge="1" parent="1" source="kAN6zUIRQIHeMg0-f0UK-36" target="kAN6zUIRQIHeMg0-f0UK-2">
          <mxGeometry relative="1" as="geometry" />
        </mxCell>
        <mxCell id="kAN6zUIRQIHeMg0-f0UK-54" value="同步" style="edgeLabel;html=1;align=center;verticalAlign=middle;resizable=0;points=[];" vertex="1" connectable="0" parent="kAN6zUIRQIHeMg0-f0UK-51">
          <mxGeometry x="0.01" relative="1" as="geometry">
            <mxPoint as="offset" />
          </mxGeometry>
        </mxCell>
        <mxCell id="kAN6zUIRQIHeMg0-f0UK-52" style="edgeStyle=orthogonalEdgeStyle;rounded=0;orthogonalLoop=1;jettySize=auto;html=1;entryX=1.004;entryY=0.745;entryDx=0;entryDy=0;entryPerimeter=0;" edge="1" parent="1" source="kAN6zUIRQIHeMg0-f0UK-29" target="kAN6zUIRQIHeMg0-f0UK-6">
          <mxGeometry relative="1" as="geometry" />
        </mxCell>
        <mxCell id="kAN6zUIRQIHeMg0-f0UK-53" value="同步" style="edgeLabel;html=1;align=center;verticalAlign=middle;resizable=0;points=[];" vertex="1" connectable="0" parent="kAN6zUIRQIHeMg0-f0UK-52">
          <mxGeometry x="-0.0207" y="1" relative="1" as="geometry">
            <mxPoint as="offset" />
          </mxGeometry>
        </mxCell>
      </root>
    </mxGraphModel>
  </diagram>
</mxfile>
